<?xml version="1.0" encoding="utf-8"?>
<!-- Generator: Adobe Illustrator 15.0.0, SVG Export Plug-In . SVG Version: 6.00 Build 0)  -->
<!DOCTYPE svg PUBLIC "-//W3C//DTD SVG 1.1//EN" "http://www.w3.org/Graphics/SVG/1.1/DTD/svg11.dtd">
<svg version="1.1" id="Layer_1" xmlns="http://www.w3.org/2000/svg" xmlns:xlink="http://www.w3.org/1999/xlink" x="0px" y="0px"
	 width="280px" height="200px" viewBox="0 0 280 200" enable-background="new 0 0 280 200" xml:space="preserve">
<path opacity="0.5" fill="#D9E021" d="M202.746,99.09v54.074h-33.282V99.09L131.518,3.029h36.675l18.021,62.132h0.422l18.233-62.132
	h36.038L202.746,99.09z"/>
<path opacity="0.5" fill="#F7931E" d="M134.417,192.941L113.64,143.32l-20.564,49.622H57.674l36.886-78.672L60.642,42.808h35.403
	L114.489,88.4l18.656-45.592h34.765l-34.13,71.251l37.312,78.882H134.417z"/>
<path opacity="0.5" fill="#3FA9F5" d="M115.326,78.673c0,11.874-1.345,22.725-4.028,32.551c-2.687,9.825-6.502,18.201-11.448,25.128
	c-4.949,6.926-10.991,12.298-18.125,16.117c-7.139,3.814-15.157,5.723-24.062,5.723c-8.903,0-16.926-1.908-24.062-5.723
	c-7.137-3.819-13.18-9.191-18.125-16.117c-4.949-6.927-8.765-15.303-11.447-25.128C1.341,101.398,0,90.546,0,78.673
	c0-11.876,1.305-22.654,3.921-32.34c2.614-9.679,6.394-17.95,11.342-24.809C20.208,14.668,26.25,9.367,33.39,5.62
	C40.524,1.875,48.616,0,57.662,0c8.905,0,16.923,1.875,24.062,5.62C88.859,9.367,94.9,14.668,99.85,21.523
	c4.946,6.859,8.762,15.13,11.448,24.809C113.98,56.019,115.326,66.797,115.326,78.673z M80.558,78.673
	c0-6.501-0.497-12.545-1.484-18.134c-0.99-5.583-2.437-10.422-4.345-14.523c-1.907-4.101-4.276-7.314-7.102-9.651
	c-2.829-2.331-6.148-3.496-9.964-3.496s-7.175,1.165-10.07,3.496c-2.899,2.337-5.3,5.55-7.208,9.651
	c-1.907,4.101-3.321,8.94-4.239,14.523c-0.921,5.589-1.379,11.633-1.379,18.134c0,6.504,0.458,12.583,1.379,18.235
	c0.917,5.658,2.332,10.534,4.239,14.632c1.909,4.101,4.31,7.354,7.208,9.756c2.895,2.403,6.254,3.605,10.07,3.605
	s7.135-1.202,9.964-3.605c2.826-2.402,5.195-5.655,7.102-9.756c1.908-4.098,3.355-8.974,4.345-14.632
	C80.061,91.256,80.558,85.177,80.558,78.673z"/>
<path opacity="0.5" fill="#8CC63F" d="M262.404,81.675c-2.544-2.969-5.512-5.266-8.905-6.893c-3.389-1.623-6.923-2.439-10.596-2.439
	c-3.817,0-7.246,1.207-10.284,3.61c-3.04,2.408-4.558,6.376-4.558,11.898c0,4.67,1.555,8.319,4.664,10.936
	c3.106,2.623,7.703,5.491,13.777,8.605c3.413,1.697,7.008,3.717,10.778,6.055c3.77,2.334,7.221,5.199,10.35,8.601
	c3.132,3.397,5.729,7.468,7.792,12.212c2.062,4.745,3.093,10.375,3.093,16.891c0,8.068-1.281,15.186-3.842,21.346
	c-2.56,6.156-6.008,11.256-10.347,15.291c-4.342,4.035-9.349,7.082-15.027,9.135c-5.681,2.051-11.559,3.078-17.635,3.078
	c-9.045,0-17.278-1.695-24.697-5.09c-7.42-3.393-13.393-7.35-17.913-11.873l17.383-25.449c3.249,3.395,6.994,6.117,11.235,8.166
	c4.242,2.049,8.55,3.074,12.934,3.074c4.097,0,7.559-1.34,10.388-4.029c2.825-2.684,4.239-6.432,4.239-11.24
	c0-4.946-1.698-8.868-5.088-11.767c-3.393-2.896-8.342-5.97-14.842-9.224c-4.099-1.98-7.949-4.171-11.551-6.574
	c-3.605-2.403-6.785-5.302-9.542-8.696c-2.755-3.391-4.91-7.348-6.463-11.874c-1.56-4.522-2.333-9.891-2.333-16.115
	c0-8.342,1.378-15.514,4.133-21.524c2.754-6.007,6.36-10.921,10.811-14.738c4.455-3.817,9.398-6.643,14.841-8.483
	c5.439-1.835,10.918-2.755,16.43-2.755c8.195,0,15.544,1.335,22.046,4.001c6.503,2.668,11.945,6.32,16.325,10.951L262.404,81.675z"
	/>
</svg>
